<?xml version="1.0" standalone="no"?>
<!DOCTYPE svg PUBLIC "-//W3C//DTD SVG 20010904//EN"
 "http://www.w3.org/TR/2001/REC-SVG-20010904/DTD/svg10.dtd">
<svg version="1.0" xmlns="http://www.w3.org/2000/svg"
 width="1280.000000pt" height="1280.000000pt" viewBox="0 0 1280.000000 1280.000000"
 preserveAspectRatio="xMidYMid meet">
<metadata>
Created by potrace 1.16, written by Peter Selinger 2001-2019
</metadata>
<g transform="translate(0.000000,1280.000000) scale(0.100000,-0.100000)"
fill="#ccff00" stroke="none">
<path d="M9955 11133 c-16 -2 -82 -13 -145 -24 -63 -11 -161 -26 -218 -34
-150 -19 -182 -42 -361 -253 -54 -64 -108 -125 -119 -136 -14 -12 -47 -21
-104 -27 -83 -9 -147 -19 -433 -64 -184 -30 -403 -61 -553 -80 -116 -15 -131
-21 -207 -83 -25 -21 -121 -126 -143 -157 -4 -6 -13 -18 -20 -27 -12 -14 -10
-16 10 -11 13 4 26 10 29 16 10 14 49 -11 49 -32 0 -14 -5 -18 -19 -14 -13 3
-21 -2 -26 -17 -5 -17 -10 -19 -21 -9 -11 9 -14 8 -14 -4 0 -21 -22 -27 -39
-10 -11 12 -17 11 -35 -4 l-21 -18 19 23 c12 14 26 20 37 17 11 -4 23 2 32 15
7 11 17 17 20 13 4 -3 7 -1 7 5 0 14 -16 16 -25 2 -3 -5 -11 -7 -18 -5 -7 3
-19 -1 -27 -8 -22 -17 -71 -83 -66 -88 2 -2 -21 -5 -52 -6 -58 -1 -127 -21
-104 -30 7 -3 18 0 25 5 7 6 37 13 67 16 46 5 51 4 28 -5 -20 -8 -28 -18 -28
-36 0 -20 -4 -24 -20 -20 -13 3 -20 0 -20 -9 0 -10 11 -12 43 -9 34 4 45 1 55
-15 10 -17 10 -21 -3 -26 -8 -4 -15 -10 -15 -15 0 -12 37 -11 45 1 9 15 25 2
19 -15 -4 -8 -10 -13 -14 -10 -5 3 -12 0 -15 -6 -5 -6 0 -10 11 -9 36 4 41 0
36 -30 -3 -20 -10 -30 -21 -30 -29 0 -57 -27 -71 -69 -7 -23 -20 -41 -28 -41
-12 0 -12 -3 -1 -16 11 -14 10 -15 -9 -12 -11 1 -21 -1 -21 -7 0 -5 7 -9 15
-7 8 2 14 -2 14 -8 0 -5 -4 -10 -10 -10 -5 0 -10 -4 -10 -10 0 -5 7 -10 15
-10 8 0 15 -4 15 -10 0 -5 -7 -10 -16 -10 -12 0 -15 -6 -10 -24 8 -32 -19 -62
-40 -45 -8 7 -17 9 -20 6 -11 -10 7 -27 28 -27 15 0 19 -5 15 -19 -3 -14 -1
-18 9 -14 8 3 14 15 14 27 0 12 3 16 8 10 5 -8 16 -2 35 17 15 15 23 30 17 34
-5 3 -7 12 -4 20 5 12 8 12 21 -1 14 -14 19 -12 47 13 17 15 33 30 36 32 3 2
-2 2 -10 -1 -11 -4 -16 0 -16 13 0 12 4 15 10 9 6 -6 13 -10 17 -10 4 0 51 38
105 85 54 47 102 85 106 85 11 0 58 -96 58 -118 0 -11 -7 -25 -15 -32 -12 -10
-13 -16 -4 -26 6 -8 7 -14 2 -14 -6 0 -19 -8 -31 -18 -14 -13 -18 -22 -11 -33
7 -11 9 -11 9 4 0 9 5 17 10 17 7 0 7 -7 0 -20 -6 -11 -15 -18 -20 -15 -5 3
-11 1 -15 -4 -3 -6 -12 -8 -20 -4 -11 3 -19 -5 -26 -26 -6 -17 -16 -29 -22
-28 -7 1 -11 -4 -9 -10 1 -7 -2 -13 -7 -13 -14 0 -61 -45 -61 -57 0 -6 -14
-13 -31 -17 -17 -3 -28 -10 -24 -16 6 -9 -8 -15 -29 -11 -5 1 -6 -5 -3 -13 4
-9 1 -13 -6 -10 -7 2 -18 -6 -26 -17 -13 -22 -13 -22 55 -16 42 4 63 3 54 -3
-9 -5 -44 -10 -79 -12 -56 -2 -65 -6 -83 -31 -11 -16 -26 -26 -34 -23 -8 3
-11 0 -7 -9 5 -14 -71 -110 -87 -110 -5 0 -12 -4 -17 -9 -5 -5 -3 -6 5 -2 6 4
12 4 12 1 0 -12 -142 -169 -186 -206 -24 -20 -41 -39 -37 -42 3 -4 56 -4 117
-2 61 3 334 12 606 20 272 9 599 20 725 25 127 6 303 10 393 10 l162 0 -6
-140 c-4 -77 -4 -140 0 -140 4 0 19 9 33 20 27 21 73 27 73 10 0 -5 0 -13 0
-17 0 -11 -23 -11 -36 -1 -8 6 -16 -2 -23 -24 -15 -42 0 -57 28 -29 26 26 31
26 31 2 0 -10 -7 -21 -15 -25 -8 -3 -15 -13 -15 -23 0 -15 4 -14 20 7 11 14
20 33 20 43 0 9 4 17 9 17 15 0 21 29 11 55 -8 22 -6 25 18 31 15 4 37 13 50
21 13 8 29 12 35 9 7 -2 2 -8 -11 -12 -13 -4 -21 -12 -18 -19 2 -7 -5 -21 -16
-32 -12 -10 -18 -12 -14 -5 4 6 2 12 -4 12 -17 0 -24 -31 -9 -42 11 -8 10 -8
-5 -4 -14 5 -17 2 -12 -9 3 -9 2 -13 -3 -10 -5 3 -12 1 -16 -5 -3 -5 -1 -10 5
-10 7 0 -1 -15 -18 -34 -29 -33 -30 -39 -35 -148 -8 -199 -7 -287 3 -293 15
-9 454 345 485 391 17 26 17 26 37 7 19 -20 19 -21 -99 -139 -113 -114 -312
-328 -362 -390 -13 -16 -52 -58 -86 -94 l-62 -65 -6 -659 c-4 -363 -5 -661 -3
-663 1 -2 38 27 82 63 93 78 184 138 193 128 3 -4 1 -9 -6 -11 -26 -9 -143
-199 -143 -233 0 -20 22 -10 73 34 115 98 387 334 459 398 42 37 80 68 85 68
20 0 63 -26 63 -37 0 -7 -4 -13 -9 -13 -26 0 -400 -358 -548 -523 l-70 -79
-38 16 c-42 18 -48 17 -40 -6 4 -9 20 -19 37 -22 37 -7 40 -2 -90 -147 l-93
-104 25 -20 c23 -19 25 -24 16 -55 -6 -19 -10 -143 -10 -275 0 -269 4 -251
-80 -367 -61 -86 -242 -266 -274 -274 -35 -8 -368 58 -402 81 -33 21 -22 34
51 60 39 14 71 39 149 119 225 228 454 505 427 514 -21 7 -78 -34 -151 -111
-43 -45 -155 -164 -249 -263 -162 -172 -176 -184 -257 -224 l-85 -42 -112 21
c-508 97 -559 126 -217 126 l198 0 17 37 c15 35 111 127 197 191 95 70 338
320 338 348 0 5 -11 9 -24 9 -14 0 -28 5 -31 10 -3 6 -29 10 -57 10 -48 0 -55
-3 -104 -50 -29 -27 -56 -50 -61 -50 -4 0 -17 7 -28 16 -20 15 -19 16 23 55
23 22 42 42 42 44 0 3 -16 5 -35 5 -27 0 -46 -10 -85 -45 -28 -25 -60 -45 -71
-45 -33 0 -182 72 -211 102 -26 27 -48 36 -48 19 0 -4 -11 -6 -24 -4 -27 6
-101 -38 -88 -52 4 -5 1 -5 -6 -1 -12 7 -64 -26 -62 -39 1 -4 -2 -10 -6 -13
-4 -4 -4 -1 1 7 10 18 1 13 -67 -33 -32 -21 -58 -43 -58 -47 0 -5 -7 -9 -14
-9 -8 0 -27 -11 -42 -25 -15 -14 -31 -25 -36 -25 -5 0 -6 -5 -2 -12 5 -8 2 -9
-9 -5 -10 4 -17 1 -17 -5 0 -6 -3 -9 -6 -5 -8 7 -79 -43 -227 -160 -218 -173
-417 -292 -568 -337 -120 -36 -136 -35 -211 22 -65 49 -299 296 -349 369 l-30
43 19 42 c11 24 29 65 41 92 l22 50 31 -40 c59 -75 339 -345 350 -338 7 5 -40
57 -120 135 -72 71 -128 130 -124 132 25 15 100 17 174 3 321 -59 479 -60 527
-3 12 16 7 17 -65 17 -193 0 -457 14 -434 22 45 17 175 20 331 9 86 -6 168
-15 181 -20 18 -7 44 -2 104 18 148 52 196 79 284 160 25 23 66 58 92 79 51
40 58 51 31 50 -10 0 -42 3 -70 7 -36 5 -53 4 -53 -3 0 -16 30 -30 51 -25 31
9 21 -4 -21 -26 -52 -27 -70 -27 -39 0 l24 22 -27 -7 c-14 -3 -34 -9 -43 -12
-15 -6 -16 -4 -6 14 9 16 8 24 -5 36 -25 25 -68 18 -70 -11 -1 -7 -2 -17 -2
-23 -2 -9 -72 -15 -72 -6 0 2 7 19 15 38 14 35 14 35 -10 31 -13 -3 -25 -14
-28 -24 -3 -10 -12 -19 -21 -19 -10 0 -13 6 -10 15 9 23 -18 18 -56 -10 -57
-42 -98 -29 -54 18 13 14 24 29 24 32 0 3 -24 4 -52 4 -29 -1 -41 -4 -25 -6
39 -6 33 -20 -13 -33 -46 -12 -68 -36 -26 -28 19 4 26 1 26 -10 0 -11 -7 -13
-31 -8 -17 3 -42 6 -54 6 -22 0 -22 1 -7 35 9 19 24 38 34 41 10 3 18 9 18 13
0 11 -95 29 -185 37 -38 3 -75 10 -82 15 -15 13 -33 3 -33 -17 0 -14 -9 -17
-46 -15 -12 1 -29 -5 -38 -14 -15 -15 -16 -15 -16 8 0 13 -12 34 -27 48 -35
31 -112 84 -135 92 -25 9 -138 -50 -138 -73 0 -9 -7 -23 -15 -30 -8 -7 -13
-16 -10 -20 2 -4 -10 -7 -28 -8 -25 -1 -35 4 -44 25 -7 14 -10 30 -7 34 8 13
-10 11 -23 -2 -8 -8 -13 -5 -18 9 -4 15 -11 19 -23 15 -15 -6 -15 -4 -4 9 16
21 134 68 168 68 14 0 23 4 19 10 -6 10 -31 7 -91 -11 -29 -9 -146 -79 -131
-79 4 0 -7 -13 -24 -28 l-31 -28 44 -54 c58 -73 118 -165 118 -182 0 -19 -108
-122 -149 -143 -19 -9 -43 -14 -57 -11 -13 4 -77 41 -144 84 -66 42 -147 94
-180 114 -33 21 -60 43 -60 50 1 16 120 111 203 160 34 20 72 44 84 53 27 19
47 19 63 0 16 -19 44 -20 37 -1 -3 8 -11 61 -17 117 -21 188 -60 266 -310 619
-78 110 -80 115 -62 130 94 75 21 211 -175 327 -51 30 -114 71 -140 91 -145
110 -186 138 -263 176 -47 24 -110 52 -140 64 -87 33 -290 83 -311 77 -16 -5
-19 -16 -19 -61 0 -87 -16 -107 -115 -146 -47 -18 -85 -36 -85 -40 0 -3 35 -9
78 -12 136 -10 305 -35 377 -57 67 -20 324 -145 362 -176 16 -13 14 -13 -22
-6 -22 4 -78 7 -124 7 -50 -1 -78 2 -70 7 8 5 32 9 54 10 34 1 36 2 15 9 -28
8 -43 6 -188 -22 -171 -33 -304 -85 -411 -162 -42 -30 -46 -31 -181 -36 -134
-6 -139 -7 -213 -43 -88 -43 -140 -88 -131 -111 3 -9 1 -16 -5 -16 -6 0 -11 5
-11 12 0 6 -14 -1 -30 -17 -17 -16 -27 -31 -23 -34 11 -9 15 -34 4 -27 -5 3
-14 -1 -21 -9 -11 -14 -7 -19 13 -16 12 2 -11 -37 -25 -41 -9 -3 -9 -6 0 -12
7 -4 12 -2 12 3 0 6 5 11 11 11 8 0 8 -5 -1 -15 -7 -8 -19 -15 -27 -15 -11 0
-14 -7 -9 -22 3 -13 6 -36 6 -51 0 -38 58 -96 74 -75 6 7 31 29 56 48 25 19
99 88 165 153 66 66 140 135 165 155 25 20 64 54 87 76 24 22 46 37 50 33 16
-16 24 -293 21 -737 -4 -533 -4 -528 -77 -625 -48 -63 -84 -85 -141 -85 -37 0
-40 2 -35 23 6 21 1 23 -57 34 -85 16 -214 61 -259 89 -46 29 -77 72 -95 131
-13 42 -20 133 -10 133 2 0 38 -11 80 -25 165 -54 261 -17 314 122 25 64 57
191 50 198 -3 3 -75 19 -159 36 -85 16 -181 37 -215 44 -101 25 -93 32 -128
-120 -8 -33 -26 -104 -40 -159 -20 -74 -26 -123 -26 -197 0 -93 14 -192 30
-214 4 -5 17 -48 29 -95 30 -111 53 -174 116 -315 34 -76 87 -276 92 -348 3
-42 9 -77 12 -77 3 0 7 -12 7 -27 1 -16 4 -43 7 -60 3 -18 2 -35 -4 -38 -5 -4
-9 -13 -9 -22 0 -19 -78 -118 -86 -110 -8 8 36 103 55 118 27 22 26 41 -8 114
-27 59 -28 60 -40 35 -8 -14 -30 -42 -50 -63 -20 -21 -28 -35 -18 -32 9 4 17
12 17 18 0 6 2 8 6 5 6 -7 -164 -260 -204 -303 -34 -37 -69 -65 -58 -48 14 25
0 13 -23 -18 -13 -18 -19 -29 -12 -25 6 4 11 3 11 -3 0 -20 -69 -51 -132 -60
-36 -5 -76 -14 -88 -21 -20 -11 -21 -10 -16 12 3 12 3 18 0 11 -3 -7 -13 -9
-22 -6 -9 3 3 -15 28 -41 24 -25 50 -46 56 -46 18 0 30 23 16 28 -7 2 -12 10
-12 18 0 9 -4 13 -8 10 -4 -2 -14 -1 -21 3 -11 7 46 16 146 24 11 1 19 5 16
10 -2 4 0 7 6 7 5 0 22 11 38 24 19 16 38 22 58 20 18 -2 25 0 17 5 -11 7 -10
10 3 15 9 3 13 10 10 16 -3 6 2 13 12 17 34 12 130 82 156 112 24 29 25 30 31
8 3 -12 1 -23 -4 -25 -6 -2 -10 -10 -10 -18 0 -8 -3 -13 -7 -13 -19 3 -33 -2
-33 -11 0 -6 3 -9 8 -9 4 1 14 1 22 0 13 -1 13 -2 0 -11 -8 -5 -24 -7 -36 -4
-14 4 -23 0 -27 -10 -5 -14 -3 -15 13 -6 16 9 20 8 20 -5 0 -8 -5 -15 -12 -15
-6 0 -8 -3 -5 -6 3 -4 22 1 42 10 38 19 75 9 75 -20 0 -14 2 -14 16 0 8 9 25
15 37 15 17 -1 18 -2 4 -6 -9 -2 -17 -12 -17 -21 0 -22 42 -123 57 -140 7 -7
13 -24 13 -37 0 -13 6 -25 13 -28 6 -2 -46 -6 -118 -9 -71 -4 -140 -10 -151
-15 -12 -4 -34 -23 -49 -41 l-28 -33 22 -23 c11 -12 21 -26 22 -32 0 -5 14
-20 32 -34 26 -20 22 -13 -17 33 -27 32 -47 59 -45 61 2 3 21 18 43 35 38 31
40 31 157 31 107 0 142 -8 107 -24 -10 -5 -10 -7 0 -12 10 -5 10 -9 1 -20 -21
-25 0 -28 26 -4 29 28 32 40 8 41 -14 0 -13 3 5 11 17 8 21 17 16 32 -6 20 -6
20 12 -1 l19 -22 85 52 c108 67 160 83 237 71 22 -3 30 -9 27 -18 -3 -8 -1
-17 5 -21 6 -3 11 -11 11 -17 0 -7 -6 -6 -15 2 -8 7 -15 19 -15 27 0 17 -28
14 -52 -7 -21 -17 -24 -44 -4 -37 10 4 12 0 9 -14 -5 -16 -8 -17 -21 -7 -13
11 -14 10 -3 -10 6 -12 9 -27 6 -32 -3 -6 3 -10 14 -10 13 0 21 -7 21 -16 0
-9 8 -32 17 -51 12 -26 14 -40 6 -52 -14 -22 4 -60 33 -67 12 -3 38 2 58 11
32 15 37 24 36 60 -1 10 25 33 32 29 4 -2 9 0 13 5 3 6 -6 8 -22 5 l-28 -4 24
13 23 14 -38 17 c-29 12 -32 15 -11 11 15 -3 39 -7 55 -10 l27 -5 -30 15 c-30
15 -30 15 20 9 28 -4 52 -11 53 -16 6 -15 465 -8 567 9 277 45 617 133 636
165 4 7 9 6 13 -1 4 -6 4 -11 0 -11 -4 0 1 -7 12 -15 18 -13 18 -14 1 -15 -10
0 -15 -4 -12 -10 4 -6 -2 -7 -17 -1 -17 6 -33 2 -63 -17 -22 -14 -41 -29 -43
-33 -2 -5 -10 -9 -18 -9 -8 0 -14 -4 -14 -10 0 -5 -9 -10 -19 -10 -10 0 -22
-7 -25 -16 -9 -25 -7 -27 10 -9 10 9 25 14 35 12 11 -3 16 0 13 8 -4 9 4 12
25 11 17 -1 32 0 33 3 5 9 90 52 95 48 3 -4 -100 -69 -167 -105 -56 -31 -309
-136 -370 -154 -129 -38 -297 -78 -420 -99 -142 -24 -312 -22 -410 6 -54 15
-111 24 -158 25 -15 0 -21 4 -16 12 5 8 2 9 -11 4 -11 -4 -28 1 -44 11 -26 17
-31 19 -53 22 -6 0 -8 4 -5 8 13 12 -16 33 -47 33 -17 0 -26 4 -21 8 6 4 11
13 13 21 2 9 -9 7 -35 -9 l-38 -22 24 26 24 26 -54 -30 c-30 -16 -104 -71
-166 -123 -138 -115 -175 -137 -204 -119 -17 11 -25 10 -50 -2 -16 -8 -27 -10
-24 -5 14 22 -8 5 -57 -43 -41 -39 -46 -47 -21 -32 17 10 31 23 31 28 0 5 6
13 14 17 26 17 29 9 8 -20 -12 -18 -16 -32 -10 -36 5 -3 10 -12 10 -19 0 -21
-46 -65 -74 -72 -15 -3 -30 -13 -35 -21 -7 -13 -9 -13 -14 1 -10 27 -24 18
-22 -14 1 -24 -1 -28 -12 -18 -10 8 -17 8 -25 0 -6 -6 -16 -8 -23 -6 -22 9
-30 -18 -10 -33 11 -7 15 -13 11 -13 -5 0 -2 -8 5 -17 12 -15 12 -16 -4 -10
-10 4 -32 7 -48 7 -20 0 -28 4 -23 12 4 7 3 8 -4 4 -7 -4 -12 -14 -12 -22 0
-8 -5 -14 -11 -14 -5 0 -8 -4 -5 -9 8 -13 36 -7 46 10 7 11 12 11 21 2 9 -9 6
-15 -14 -24 -32 -15 -34 -23 -6 -43 l21 -14 -24 -13 c-12 -7 -26 -13 -30 -14
-5 0 -8 -4 -9 -10 0 -5 -5 -16 -11 -22 -12 -15 -50 13 -104 78 -37 44 -45 39
-17 -10 10 -16 27 -32 38 -35 15 -5 17 -8 7 -14 -9 -6 -2 -14 23 -28 42 -22
52 -18 142 66 33 30 88 80 123 110 36 30 95 84 133 120 38 36 73 67 79 69 5 2
27 21 49 42 22 21 42 39 45 39 11 0 191 161 212 190 22 29 24 30 52 15 16 -8
64 -49 107 -91 43 -42 102 -97 132 -123 29 -25 61 -53 70 -62 9 -9 25 -21 36
-27 11 -6 14 -12 8 -12 -7 0 -13 -7 -13 -16 0 -9 6 -14 13 -11 8 3 14 -3 14
-15 1 -11 -1 -17 -4 -14 -11 11 -50 -78 -40 -91 5 -6 3 -14 -4 -19 -7 -4 -15
-2 -17 4 -2 7 -8 9 -14 6 -6 -4 -5 -10 3 -16 11 -7 11 -11 1 -15 -6 -2 -10 -8
-7 -13 3 -5 -7 -18 -21 -29 -32 -25 -24 -28 12 -5 13 9 27 14 31 10 3 -3 1 -6
-5 -6 -6 0 -9 -7 -6 -15 5 -11 1 -14 -12 -9 -17 5 -17 4 1 -11 24 -19 160 -87
310 -153 143 -63 294 -136 294 -142 0 -3 -26 -22 -57 -42 -31 -21 -74 -50 -95
-64 -21 -15 -55 -30 -75 -33 -30 -5 -13 -10 98 -29 146 -24 252 -28 315 -11
22 6 48 11 57 12 9 1 14 5 12 9 -3 4 19 18 48 32 29 13 73 41 98 63 25 22 63
51 85 65 22 14 103 74 180 134 77 59 223 170 325 246 102 76 211 159 244 184
60 48 253 194 569 432 98 74 175 138 170 141 -4 4 -55 17 -113 30 -143 31
-322 91 -400 136 -71 40 -202 136 -195 143 3 4 272 -60 615 -145 58 -14 139
-39 181 -55 l77 -29 83 61 c108 77 157 93 236 76 61 -14 567 -148 618 -165 17
-5 183 -46 370 -91 554 -132 525 -120 590 -242 l39 -75 121 -24 c149 -28 434
-38 565 -19 240 36 371 135 494 375 72 142 76 177 76 654 l0 410 58 11 c31 6
64 14 72 17 8 3 52 14 97 24 131 28 209 95 249 218 13 39 15 67 9 114 -4 34
-8 72 -8 85 -2 26 -6 27 -22 5 -11 -15 -71 -34 -359 -114 -93 -25 -111 -28
-125 -16 -21 18 -96 45 -148 53 -49 8 -58 24 -13 24 17 0 70 10 119 21 88 22
89 22 80 46 -6 15 -9 466 -9 1120 0 788 -3 1099 -11 1109 -23 27 1 54 86 94
46 22 89 40 95 40 7 0 10 7 6 15 -7 19 41 32 57 16 9 -10 7 -17 -12 -32 -13
-10 -31 -19 -40 -19 -23 0 -99 -51 -136 -91 l-30 -32 48 34 c65 47 96 64 140
78 25 9 42 22 48 39 13 33 1 44 -51 46 -32 0 -42 5 -45 21 -2 11 -6 209 -9
439 -3 231 -9 422 -12 425 -4 3 -4 -183 0 -414 5 -283 4 -429 -3 -448 -8 -21
-17 -27 -40 -27 -38 0 -52 -20 -14 -21 25 -1 23 -2 -12 -12 -22 -7 -65 -27
-96 -44 -31 -18 -63 -33 -71 -33 -30 0 -27 -14 12 -56 37 -40 51 -74 32 -74
-5 0 -30 21 -56 46 -26 25 -54 43 -61 40 -28 -11 -153 -107 -159 -122 -4 -9
-1 -23 5 -30 16 -20 5 -17 -53 12 l-51 26 49 27 c27 15 83 49 124 76 41 27
117 68 168 93 l93 44 -4 1296 c-3 1159 -5 1302 -19 1343 -42 119 -103 191
-178 208 -46 11 -52 11 -105 4z m-2062 -700 c3 7 6 4 6 -6 1 -11 6 -15 13 -11
7 4 8 3 4 -4 -4 -8 14 -12 59 -14 36 -2 64 -7 63 -13 -2 -5 -9 -10 -16 -12
-26 -3 -25 -13 1 -13 33 0 43 -16 18 -30 -16 -8 -22 -6 -30 7 -10 17 -10 17
-11 0 0 -10 -4 -16 -9 -12 -6 3 -18 -3 -28 -13 -26 -27 -54 -36 -46 -14 4 9
11 20 17 24 6 4 7 10 4 14 -8 8 -38 -20 -38 -35 0 -6 -4 -11 -10 -11 -5 0 -10
6 -10 13 0 18 -38 62 -46 54 -3 -3 -2 -12 2 -19 15 -23 14 -49 -1 -65 -14 -13
-17 -12 -34 8 -18 23 -60 21 -45 -2 3 -6 1 -15 -7 -19 -15 -10 -29 -4 -29 11
0 6 4 7 10 4 6 -3 7 1 4 10 -6 14 -9 14 -27 -2 -20 -18 -20 -18 -2 10 16 25
19 26 30 10 11 -15 13 -15 19 5 8 24 36 30 36 8 0 -7 11 -16 24 -18 19 -4 24
-1 23 14 -1 10 -7 18 -15 18 -20 0 -10 32 17 57 15 13 22 27 18 37 -5 14 -3
15 12 6 14 -7 21 -6 24 3z m852 -450 c0 -22 5 -33 17 -36 12 -3 15 0 11 12 -3
9 18 -8 46 -38 45 -47 51 -58 46 -83 -11 -46 -35 -86 -56 -93 -10 -4 -17 -10
-14 -15 3 -4 -2 -10 -10 -14 -8 -3 -17 -1 -20 4 -10 16 -28 11 -21 -5 3 -8 1
-15 -5 -15 -5 0 -12 7 -15 15 -10 25 -23 17 -26 -17 -3 -36 -27 -50 -35 -20
-3 13 -10 19 -20 15 -8 -3 -19 0 -23 7 -4 7 -15 10 -24 7 -14 -6 -13 -11 6
-44 12 -20 17 -33 10 -29 -19 11 -59 87 -67 126 -4 19 -14 44 -21 55 -40 57
18 162 104 189 26 8 63 14 82 13 32 -2 35 -4 35 -34z m-429 -38 c9 -22 -27
-72 -115 -160 -45 -44 -81 -84 -81 -89 0 -6 5 -5 12 2 15 15 68 16 68 0 0 -6
-12 -27 -26 -46 -39 -50 -184 -115 -184 -82 0 5 11 17 25 26 14 9 23 19 21 21
-3 3 -17 -4 -31 -15 -34 -27 -78 -36 -104 -22 -15 8 -21 8 -21 0 0 -6 -5 -8
-11 -5 -11 8 56 76 166 170 105 90 125 108 188 164 59 52 83 62 93 36z m799
-518 c65 -33 91 -62 120 -133 l24 -58 108 -22 c152 -31 338 -81 383 -104 21
-11 54 -38 74 -61 38 -45 49 -74 17 -45 -20 18 -32 18 -154 -6 -32 -6 -65 -17
-73 -25 -13 -13 -19 -13 -52 2 -20 10 -65 37 -100 61 -64 45 -78 52 -67 34 12
-19 -10 -9 -78 35 -38 24 -75 41 -82 39 -22 -9 -56 15 -67 47 -6 18 -19 31
-35 35 -14 4 -143 5 -287 2 -269 -4 -254 2 48 21 96 6 196 8 222 4 l47 -6 -7
29 c-12 51 -50 117 -79 138 -24 18 -48 22 -150 26 -100 3 -113 5 -72 11 97 14
206 4 260 -24z m-3832 -2097 c79 -30 171 -102 232 -182 70 -93 294 -455 348
-564 50 -100 83 -191 73 -201 -4 -4 -37 24 -74 63 -37 38 -105 98 -152 134
-168 131 -186 147 -251 234 -118 156 -162 189 -344 256 -288 107 -355 139
-355 172 0 35 144 89 295 112 63 9 171 -2 228 -24z m207 -726 c99 -51 151 -84
198 -128 94 -88 112 -135 51 -136 -42 0 -313 210 -401 312 -50 59 -51 61 -18
41 19 -12 96 -52 170 -89z m4539 -798 c10 -9 26 -16 37 -17 10 0 14 -3 7 -5
-8 -4 -4 -23 14 -62 45 -98 31 -244 -28 -300 -35 -33 -63 -41 -109 -31 -21 5
-36 4 -38 -1 -2 -6 -19 -10 -37 -10 -40 0 -76 41 -94 105 -20 74 -14 117 30
204 51 102 102 146 162 138 21 -3 46 -12 56 -21z m-1726 -92 c-5 -15 -3 -14
21 1 15 10 29 15 32 12 7 -7 -79 -63 -155 -102 -61 -31 -135 -55 -169 -55 -33
0 -17 20 16 21 27 0 27 0 4 11 -16 8 -29 8 -48 0 -31 -15 -67 -16 -59 -2 3 6
18 10 33 10 15 0 61 16 102 36 164 80 236 102 223 68z m-2328 -423 c208 -198
468 -396 558 -423 82 -25 299 41 451 136 102 65 225 155 287 212 l47 43 58
-14 c33 -7 163 -34 289 -60 127 -25 255 -52 285 -60 30 -7 78 -16 105 -20 28
-3 127 -22 220 -41 158 -32 388 -74 409 -74 5 0 -9 -15 -32 -32 -22 -18 -91
-81 -153 -139 -125 -116 -216 -192 -251 -209 l-23 -11 23 20 c23 20 31 37 11
25 -8 -4 -8 0 0 15 9 16 9 21 -2 21 -7 0 -13 9 -14 20 -1 13 2 18 9 14 7 -4 8
-2 4 5 -4 6 -9 25 -11 42 -3 17 -9 37 -16 45 -6 8 -9 20 -6 29 4 8 2 17 -3 20
-6 4 -10 18 -10 32 0 27 -29 83 -43 83 -5 0 -6 9 -2 19 7 24 -7 33 -51 33 -21
0 -38 6 -41 14 -3 8 -14 14 -25 14 -12 0 -17 4 -12 12 5 8 0 9 -14 6 -12 -4
-20 -2 -16 3 3 5 0 9 -5 9 -6 0 -28 -19 -49 -42 -58 -64 -276 -253 -345 -298
-142 -93 -232 -123 -338 -110 -64 8 -359 71 -654 140 -115 27 -271 62 -345 79
-431 95 -549 123 -587 137 l-43 16 0 193 c0 106 3 200 6 209 8 21 24 20 54 -4
33 -26 53 -25 87 5 15 13 32 25 36 25 4 0 73 -62 152 -139z m-911 -298 c77
-30 197 -75 266 -98 69 -24 143 -51 165 -61 35 -14 37 -18 20 -24 -11 -4 -23
-3 -26 2 -3 5 -9 3 -12 -6 -4 -9 -16 -16 -27 -16 -12 0 -19 -4 -15 -10 3 -5
13 -6 22 -3 10 4 14 2 9 -5 -3 -6 4 -18 16 -26 47 -33 2 -14 -100 43 -59 33
-165 88 -237 122 -127 61 -360 190 -380 211 -5 5 28 -9 74 -32 45 -22 147 -66
225 -97z m4626 -333 c-10 -33 -27 -75 -39 -93 -55 -90 -180 -167 -302 -187
-69 -11 -226 -14 -216 -4 3 3 52 21 109 40 57 19 146 56 198 81 80 40 108 60
180 134 47 48 86 87 87 88 0 0 -7 -26 -17 -59z"/>
<path d="M9914 5716 c-40 -40 -41 -45 -13 -80 26 -33 47 -33 55 -1 13 52 53
55 74 5 17 -40 5 -82 -33 -117 -38 -37 -68 -53 -96 -53 -12 0 -21 -5 -21 -11
0 -8 15 -10 46 -6 37 4 54 13 90 48 24 24 49 59 54 78 13 47 -4 106 -40 143
-39 38 -73 37 -116 -6z"/>
<path d="M7560 11036 c0 -3 15 -25 33 -49 18 -24 39 -58 46 -76 13 -31 13 -33
-24 -71 -21 -22 -43 -36 -48 -33 -6 3 -7 1 -4 -4 4 -6 0 -16 -8 -23 -11 -9
-15 -9 -15 -1 0 7 -5 9 -11 5 -8 -5 -8 -8 0 -14 9 -5 7 -11 -4 -20 -14 -12
-18 -11 -25 0 -5 8 -12 11 -16 7 -4 -3 -1 -13 5 -21 10 -12 6 -21 -19 -48 -18
-18 -29 -27 -25 -20 5 10 2 13 -11 10 -11 -2 -18 -9 -17 -16 2 -6 -8 -14 -22
-18 -14 -3 -25 -12 -25 -20 0 -8 -6 -14 -14 -14 -8 0 -16 -7 -20 -15 -3 -8
-10 -15 -16 -15 -12 0 -56 -45 -63 -63 -3 -9 -8 -9 -17 0 -10 9 -9 15 4 28 22
23 20 45 -5 45 -16 0 -19 -4 -14 -21 5 -14 2 -25 -6 -30 -10 -6 -11 -11 -3
-16 6 -5 15 -19 19 -32 6 -21 5 -23 -14 -18 -11 3 -21 1 -21 -4 0 -5 4 -9 10
-9 5 0 7 -7 4 -15 -4 -8 -1 -15 6 -15 6 0 8 -5 5 -11 -5 -6 -12 -4 -20 8 -17
23 -30 11 -16 -16 8 -14 8 -22 -1 -27 -6 -4 -8 -3 -5 3 7 12 -14 23 -41 23
-12 0 -13 -3 -5 -11 6 -6 9 -18 6 -25 -3 -8 1 -14 8 -14 10 0 10 -3 1 -12 -9
-9 -15 -8 -27 8 -11 15 -14 16 -15 4 0 -9 -9 -23 -20 -33 -25 -21 -26 -37 -2
-37 14 0 14 -2 3 -9 -8 -5 -19 -7 -26 -5 -18 7 -57 -44 -50 -67 5 -15 3 -18
-12 -12 -10 4 -21 11 -25 17 -5 7 -8 3 -8 -9 -1 -31 -22 -50 -53 -50 -19 1
-26 -3 -22 -12 3 -7 8 -20 11 -28 3 -8 1 -15 -5 -15 -6 0 -11 -7 -11 -15 0
-18 17 -20 23 -2 2 6 7 9 11 6 3 -3 -4 -16 -15 -28 -28 -30 -13 -41 36 -25 35
11 37 13 13 13 -16 1 -28 5 -28 9 0 4 26 37 58 73 31 36 77 89 102 119 25 30
108 121 185 203 77 82 163 174 190 205 28 31 83 91 123 132 47 49 72 83 72 98
0 23 -17 63 -30 72 -4 3 -16 20 -27 39 -17 31 -43 53 -43 37z"/>
<path d="M4075 10394 c-55 -13 -122 -28 -150 -34 -27 -7 -72 -18 -100 -25 -27
-8 -66 -17 -85 -21 -19 -4 -29 -9 -23 -11 14 -5 156 26 432 94 64 16 64 16 83
-7 11 -14 18 -38 18 -64 0 -48 -43 -244 -56 -255 -5 -4 -63 -18 -129 -30 -66
-12 -133 -25 -149 -28 -32 -6 -31 -13 -10 73 5 19 4 25 -5 20 -6 -4 -11 -1
-11 9 0 9 5 13 10 10 6 -3 10 3 10 14 0 17 -5 19 -47 14 -27 -2 -54 -9 -60
-15 -8 -6 -38 -8 -79 -3 -58 6 -66 5 -61 -8 3 -9 1 -17 -5 -19 -6 -2 -10 -16
-10 -31 0 -15 -4 -27 -9 -27 -12 0 -11 13 0 43 6 14 6 38 2 53 -6 24 -10 15
-25 -59 -16 -80 -16 -89 -1 -103 15 -15 15 -14 10 8 -5 20 -2 26 14 31 22 5
30 -8 9 -16 -7 -2 4 -8 24 -12 21 -4 35 -11 32 -16 -3 -5 -10 -7 -15 -4 -5 3
-6 -1 -3 -9 7 -18 -37 -49 -58 -41 -8 3 -19 18 -25 33 -11 26 -11 25 -5 -8 3
-19 10 -38 16 -42 8 -5 7 -11 -2 -20 -6 -6 -12 -8 -12 -3 0 5 -7 0 -16 -11
-15 -18 -15 -18 -9 9 9 42 -10 25 -30 -26 -8 -23 -33 -109 -54 -190 l-39 -149
46 7 c113 16 522 102 569 119 22 8 43 13 45 10 3 -2 13 5 23 16 10 11 23 20
29 20 6 0 12 10 12 23 2 29 34 229 38 236 10 16 55 266 61 332 6 72 5 77 -20
107 -32 38 -44 39 -180 6z m-210 -428 c48 -22 203 -144 254 -199 14 -15 21
-32 18 -42 -5 -12 -31 3 -116 70 -129 100 -178 125 -250 124 -51 -2 -86 14
-75 33 9 15 65 37 94 38 14 0 48 -11 75 -24z m-77 -141 c6 -3 12 -15 12 -27
l1 -23 13 24 13 24 11 -30 c11 -32 1 -60 -17 -49 -6 4 -16 4 -22 0 -8 -5 -8
-8 0 -13 6 -4 -16 -5 -49 -3 -37 3 -60 0 -60 -6 0 -5 -6 -9 -12 -8 -7 0 -14
-3 -15 -9 -2 -5 1 -10 6 -10 5 0 13 -3 17 -7 4 -5 0 -8 -9 -8 -20 0 -20 -2 -5
-35 6 -14 16 -25 22 -25 6 0 4 -5 -4 -10 -20 -13 -63 -13 -55 0 4 6 16 8 28 4
21 -6 21 -6 3 9 -11 8 -28 12 -38 9 -23 -6 -23 6 0 32 16 20 16 20 -1 6 -33
-25 -45 17 -22 74 7 15 5 17 -6 11 -11 -7 -12 -6 -2 7 7 8 10 18 6 22 -4 4 1
4 11 0 17 -6 18 -4 12 22 -5 25 -3 23 14 -10 24 -48 25 -53 3 -59 -10 -2 -3
-4 15 -4 17 0 32 4 32 10 0 5 14 7 33 3 17 -3 39 -2 47 4 10 6 2 9 -28 8 -48
0 -92 24 -92 52 0 13 9 20 28 23 26 4 84 -1 110 -8z"/>
<path d="M3470 10001 c-39 -12 -104 -56 -144 -97 -47 -49 -96 -123 -96 -145 0
-23 37 -48 83 -56 59 -9 127 38 127 89 0 10 -50 5 -84 -8 -18 -7 -46 23 -39
42 5 14 44 14 120 -1 16 -4 23 2 32 27 20 56 16 64 -30 60 -23 -3 -46 1 -52 7
-19 19 12 32 61 28 37 -4 45 -1 58 19 9 13 13 28 9 34 -7 11 -10 11 -45 1z"/>
<path d="M5080 9725 c-130 -22 -234 -59 -340 -121 -86 -50 -235 -167 -219
-173 7 -2 -71 -23 -174 -47 -217 -50 -254 -64 -324 -128 -71 -64 -112 -149
-122 -250 -6 -66 -5 -76 8 -74 11 2 18 21 23 57 19 129 110 247 225 290 78 29
230 60 328 66 l80 5 -54 -16 c-59 -16 -155 -85 -195 -137 -59 -78 -70 -192
-35 -354 33 -154 20 -183 -108 -236 -102 -43 -136 -67 -158 -113 -16 -34 -16
-37 2 -56 10 -11 39 -31 66 -44 38 -20 47 -29 47 -51 0 -37 -43 -89 -106 -129
-33 -21 -54 -42 -54 -53 0 -10 -7 -24 -15 -31 -8 -7 -13 -16 -10 -20 3 -5 1
-11 -5 -15 -6 -4 -8 -10 -5 -15 6 -10 48 -7 78 5 9 4 17 3 17 -2 0 -13 -126
-46 -155 -41 -31 6 -39 -3 -21 -27 16 -22 79 -22 152 0 26 8 50 12 52 10 2 -2
14 7 27 21 29 31 40 31 19 0 -14 -23 -14 -28 1 -59 22 -46 60 -72 148 -101 41
-13 102 -38 136 -56 87 -44 101 -39 126 38 22 71 29 74 125 47 30 -8 107 -26
170 -40 194 -41 277 -76 518 -219 l143 -85 -7 84 c-8 98 -1 135 25 135 10 0
60 -25 111 -56 117 -71 167 -88 225 -80 71 11 104 63 121 190 10 71 28 71 20
0 -9 -91 -17 -134 -26 -134 -4 0 -11 -12 -14 -26 -13 -50 -116 -70 -198 -37
-24 9 -85 43 -137 74 -52 32 -98 56 -103 53 -5 -3 -8 -51 -7 -107 l2 -102 66
-61 c54 -51 72 -75 100 -140 37 -87 39 -148 5 -185 -18 -20 -18 -22 6 -66 13
-25 45 -73 70 -107 66 -86 172 -250 209 -321 44 -85 69 -186 72 -288 2 -48 4
-87 6 -87 7 0 198 152 201 159 1 4 -15 24 -38 45 l-40 36 27 0 c16 0 73 -7
128 -15 55 -8 105 -15 110 -16 6 -1 -3 -5 -20 -9 l-30 -8 27 -1 c19 -1 26 -5
22 -15 -3 -8 1 -14 8 -13 41 1 56 -4 54 -20 -1 -12 7 -19 24 -20 l25 -2 -25 8
c-23 8 -22 9 12 10 20 1 43 -5 50 -11 7 -7 19 -13 26 -14 29 -2 33 -5 27 -14
-4 -6 11 -10 37 -11 24 0 52 -5 63 -10 14 -6 6 -8 -30 -4 -27 2 -86 7 -130 10
-44 3 -93 10 -110 15 -58 16 -105 21 -105 11 0 -19 46 -41 103 -51 52 -8 100
-29 191 -84 32 -20 53 -24 125 -25 87 -1 368 -29 581 -57 189 -26 259 -34 375
-44 61 -5 153 -20 205 -34 52 -13 163 -32 245 -40 83 -9 202 -23 265 -31 186
-23 280 -29 280 -17 0 23 -25 68 -54 100 -23 25 -28 35 -18 41 7 4 14 24 15
43 1 20 8 43 16 52 11 13 11 22 -2 55 -15 36 -15 40 1 53 28 25 48 27 116 16
80 -13 104 -5 224 71 82 53 102 81 60 81 -32 0 -416 29 -508 38 l-75 7 55 6
c51 6 50 6 -15 4 -64 -2 -543 37 -618 50 -18 3 -153 14 -302 25 -529 38 -595
44 -591 55 2 5 7 9 12 9 5 -1 65 -4 134 -7 l125 -6 -120 14 c-66 7 -126 14
-133 14 -9 1 -12 57 -11 251 0 137 -2 254 -5 259 -3 5 -25 11 -48 15 -93 13
-676 60 -758 61 l-45 0 3 -270 c1 -148 5 -280 8 -292 3 -16 12 -23 27 -23 16
0 18 -3 9 -9 -8 -5 16 -11 65 -15 43 -4 119 -13 168 -21 50 -8 132 -17 183
-21 50 -4 92 -10 92 -14 0 -12 -123 0 -504 50 -115 15 -110 1 -116 328 -3 152
-1 285 3 294 4 10 13 17 20 15 9 -1 13 81 15 357 3 398 5 384 -63 406 -26 9
-32 15 -28 31 7 24 25 34 78 44 22 4 44 9 48 12 5 3 -12 24 -36 48 -25 24 -63
75 -84 114 -22 39 -43 68 -46 64 -12 -11 -8 8 9 43 9 18 25 36 35 39 11 4 26
20 35 37 l16 32 13 -38 c20 -58 31 -63 39 -16 4 23 20 68 36 100 43 85 39 105
-10 50 -22 -25 -40 -40 -40 -34 0 6 9 19 19 28 11 10 17 25 14 34 -4 15 -3 15
6 2 16 -22 13 -8 -5 30 -12 24 -15 46 -10 87 7 58 25 107 26 69 0 -18 8 -18
163 -12 193 8 347 24 365 39 11 8 38 -15 121 -101 59 -62 115 -112 124 -112
23 0 181 155 173 169 -5 7 -51 9 -150 5 l-143 -5 -65 58 c-35 32 -73 63 -84
69 -23 13 -22 14 189 198 126 110 165 152 119 127 -10 -5 -51 -12 -92 -16 -85
-7 -169 -17 -385 -44 -82 -11 -186 -22 -231 -24 l-80 -5 -29 57 c-31 59 -141
175 -178 187 -12 4 -56 30 -97 59 -83 58 -135 83 -260 126 -163 56 -386 74
-560 44z m310 -55 c135 -17 236 -47 368 -111 104 -51 135 -72 204 -137 77 -73
158 -180 158 -209 0 -8 -11 -13 -29 -13 -24 0 -35 9 -60 49 -30 46 -114 130
-178 177 -57 42 -200 118 -274 145 -90 33 -234 51 -404 52 -111 0 -246 -16
-270 -33 -5 -3 -31 -14 -57 -24 -43 -16 -53 -25 -49 -48 0 -4 -7 -7 -17 -6
-34 3 -53 -2 -47 -12 3 -5 15 -10 26 -10 11 0 61 -17 111 -37 132 -54 157 -80
447 -448 146 -186 134 -175 182 -175 49 0 119 -33 160 -74 30 -31 32 -50 1
-23 -27 25 -128 47 -213 47 l-77 0 -49 72 c-63 96 -179 244 -265 340 -161 179
-333 272 -461 247 -67 -13 -66 -11 10 30 40 21 78 43 85 49 59 48 304 140 413
155 62 8 204 7 285 -3z m-149 -150 c356 -28 461 -67 637 -235 82 -78 85 -82
87 -130 1 -28 -4 -67 -12 -87 -12 -31 -13 -52 -4 -118 6 -46 7 -89 2 -102 -7
-19 -9 -16 -9 17 -1 58 -39 171 -77 231 -49 76 -59 78 -51 13 13 -105 18 -218
11 -246 l-7 -28 -19 39 c-60 124 -271 357 -359 398 -115 54 -150 68 -164 68
-8 0 -18 5 -22 12 -5 8 -2 9 9 5 10 -3 17 -2 17 3 0 6 -10 10 -21 10 -17 0
-19 3 -10 13 14 17 -11 41 -53 51 -56 14 -16 17 75 7 96 -11 137 -8 52 4 -26
4 -65 11 -86 16 -20 6 -108 14 -195 20 -162 9 -239 21 -212 32 41 17 241 20
411 7z m750 -2530 c-7 -202 -8 -176 -8 265 0 270 2 513 6 540 10 80 12 -557 2
-805z m537 122 c29 -22 22 -42 -23 -66 -46 -25 -66 -48 -68 -82 -3 -36 -24
-43 -33 -10 l-6 26 -19 -24 c-10 -13 -30 -26 -44 -28 -51 -10 -43 28 13 60 20
12 32 22 25 22 -20 0 -43 30 -43 57 0 22 3 25 28 21 15 -3 34 -8 43 -12 10 -5
27 4 48 24 38 35 47 36 79 12z m1187 -554 c0 -7 6 -19 14 -27 23 -25 -13 -42
-78 -37 -31 2 -76 5 -101 6 -38 1 -42 3 -22 11 31 12 27 53 -5 57 -18 3 -23
-2 -24 -20 -1 -13 -1 -26 0 -30 2 -12 -24 -9 -37 4 -7 7 -12 23 -12 36 l0 24
133 -5 c100 -4 132 -9 132 -19z"/>
<path d="M4127 8941 c3 -12 -4 -30 -20 -47 -21 -23 -34 -57 -42 -109 -1 -5 2
-18 7 -27 7 -14 5 -16 -7 -12 -9 4 1 -12 21 -35 21 -22 43 -41 49 -41 24 0 49
53 48 100 -1 48 -37 175 -52 185 -5 3 -7 -4 -4 -14z"/>
<path d="M3502 8704 c15 -17 16 -31 7 -129 -5 -61 -14 -163 -18 -227 -5 -67
-14 -124 -21 -133 -7 -8 -10 -25 -6 -39 6 -26 -16 -52 -35 -41 -7 5 -9 1 -7
-11 2 -11 10 -18 16 -16 7 1 12 -1 12 -5 -1 -18 -17 -28 -42 -28 -15 1 -24 -3
-22 -7 7 -11 -10 -10 -24 2 -9 7 -9 7 -2 -2 16 -20 11 -29 -9 -19 -16 9 -18 8
-14 -9 4 -14 -2 -22 -21 -30 -14 -5 -25 -15 -24 -22 2 -9 -7 -12 -27 -10 -23
2 -26 0 -15 -8 8 -5 13 -10 10 -10 -3 0 -43 -2 -90 -4 -86 -4 -354 -57 -392
-77 -17 -9 -18 -13 -7 -20 9 -6 10 -9 2 -9 -6 0 -15 5 -19 11 -4 6 -20 8 -40
4 -41 -7 -58 17 -28 40 18 13 16 14 -16 14 -19 0 -29 -3 -22 -6 17 -7 15 -30
-4 -37 -30 -11 -53 -6 -64 15 -14 25 -6 49 15 49 8 0 15 5 15 10 0 6 -4 10
-10 10 -5 0 -10 5 -10 10 0 6 8 10 17 10 15 0 14 2 -3 15 -13 10 -14 14 -5 15
11 0 11 3 1 15 -7 8 -18 15 -25 15 -14 0 -24 28 -18 48 3 6 9 12 14 12 6 0 8
-3 6 -7 -8 -13 12 -55 23 -48 6 3 18 -1 27 -10 13 -13 18 -14 24 -3 14 21 10
31 -10 25 -21 -5 -51 9 -51 24 0 6 5 7 11 3 7 -4 10 4 8 22 -4 38 7 54 37 54
14 0 22 4 19 10 -3 5 0 7 8 4 8 -3 18 -1 22 5 3 6 0 11 -7 11 -7 0 -2 7 11 16
18 13 25 14 31 4 4 -7 8 8 8 34 1 25 -3 46 -9 46 -5 0 -7 -11 -5 -25 4 -23 2
-25 -34 -25 -21 0 -41 4 -45 10 -3 5 -12 7 -20 3 -9 -3 -15 1 -15 11 0 9 -4
16 -10 16 -5 0 -10 -8 -10 -19 0 -10 -7 -24 -15 -31 -8 -7 -15 -24 -16 -39 0
-23 -1 -24 -9 -6 -6 14 -9 15 -10 5 -3 -29 -9 -52 -15 -58 -3 -3 -3 62 1 145
6 132 5 155 -9 177 -23 34 -21 52 5 70 12 9 19 18 16 22 -4 3 -16 -4 -28 -16
-19 -19 -21 -28 -14 -68 11 -70 6 -178 -17 -362 -11 -91 -21 -208 -22 -260 -3
-129 -1 -130 194 -90 79 16 173 39 209 50 36 11 75 20 88 20 16 0 22 6 22 21
0 15 -4 19 -15 15 -8 -3 -22 -9 -30 -12 -8 -3 -15 -2 -15 4 0 10 47 27 63 23
4 0 3 8 -4 20 -6 13 -7 19 -1 15 6 -3 13 -2 17 4 4 6 10 8 13 6 4 -2 28 -7 52
-10 43 -6 44 -6 25 10 -17 14 -17 16 -2 11 9 -4 29 -2 43 3 17 7 23 7 19 0 -3
-6 -12 -10 -19 -10 -7 0 -13 -7 -13 -15 0 -8 4 -12 9 -9 9 6 38 -19 38 -33 0
-16 -22 -32 -37 -26 -12 5 -12 7 -1 14 9 6 9 9 1 9 -16 0 -26 -17 -13 -25 10
-6 -3 -42 -19 -55 -4 -3 -17 -18 -29 -34 -23 -31 -29 -52 -11 -40 8 5 8 1 0
-14 -6 -11 -14 -22 -18 -24 -13 -6 -138 -138 -131 -138 3 0 37 30 75 68 37 37
82 78 98 91 17 13 71 65 122 114 80 78 94 88 107 76 29 -27 45 -39 50 -39 3 0
16 -11 30 -25 29 -29 44 -32 53 -9 7 18 -47 78 -89 100 -16 8 -28 19 -28 24 0
5 32 30 71 57 126 86 118 74 129 198 5 61 14 193 19 294 11 192 6 228 -29 239
-12 4 -12 1 2 -14z"/>
<path d="M7825 8519 c-253 -4 -561 -13 -685 -19 -124 -5 -283 -10 -353 -10
l-128 0 3 -27 3 -28 345 3 c190 2 665 7 1055 12 391 6 725 10 743 10 30 0 32
2 32 35 l0 35 -277 -2 c-153 -1 -485 -5 -738 -9z"/>
<path d="M3670 8325 c-7 -18 -17 -25 -37 -26 -21 -1 -23 -3 -8 -6 11 -3 25 -9
31 -14 6 -5 16 -3 24 4 10 10 12 9 7 -4 -4 -11 3 -21 21 -29 38 -18 160 -24
219 -12 58 13 143 60 143 80 0 14 -22 10 -109 -19 -84 -29 -169 -34 -211 -12
-19 10 -39 28 -45 41 -13 29 -23 28 -35 -3z"/>
<path d="M7150 8057 c-34 -17 -70 -74 -70 -112 0 -43 27 -130 45 -145 28 -23
16 -35 -34 -35 -87 0 -106 -24 -145 -185 -8 -36 -18 -75 -22 -87 -5 -19 -3
-23 17 -23 16 0 33 13 53 41 15 22 33 38 40 36 17 -5 24 -83 25 -260 1 -145 2
-158 19 -155 9 2 26 22 37 46 11 23 24 42 30 42 5 0 22 -20 38 -45 23 -39 30
-44 46 -36 10 6 26 22 36 37 l18 28 18 -23 c11 -13 19 -29 19 -36 0 -13 21
-25 46 -25 19 0 19 76 -1 194 -13 85 -13 92 7 150 14 42 21 85 20 141 0 52 3
75 9 65 5 -8 26 -43 47 -77 47 -79 109 -153 127 -153 19 0 8 29 -38 101 -19
30 -46 77 -60 104 -45 89 -53 96 -141 106 -43 4 -80 10 -83 12 -2 2 12 30 32
62 57 96 47 191 -25 227 -41 21 -75 23 -110 5z"/>
<path d="M7670 7942 c-38 -19 -60 -53 -60 -95 0 -41 44 -120 79 -140 17 -10
31 -21 31 -25 0 -4 -20 -15 -44 -25 -71 -29 -81 -47 -79 -134 1 -41 6 -80 11
-86 5 -7 12 -54 14 -106 4 -79 7 -96 23 -105 39 -23 55 -47 55 -81 0 -35 0
-35 45 -35 41 0 45 3 61 35 9 20 25 40 35 46 35 18 79 -22 79 -71 0 -35 30
-19 45 24 8 21 30 55 49 75 l36 37 0 119 c0 140 -13 269 -32 309 l-12 29 -81
-6 c-44 -3 -95 -9 -112 -13 -29 -6 -33 -4 -33 14 0 11 7 33 15 48 34 66 7 166
-51 190 -40 17 -32 17 -74 -4z"/>
<path d="M3504 7899 c-4 -6 -6 -44 -5 -83 1 -39 3 -206 4 -370 2 -229 5 -300
15 -303 6 -3 12 -16 12 -31 0 -14 2 -23 5 -20 3 3 7 188 8 412 2 375 1 406
-15 406 -9 0 -20 -5 -24 -11z"/>
<path d="M9003 7756 c-27 -26 -39 -32 -51 -28 -6 2 -15 -3 -18 -12 -3 -9 -10
-16 -16 -16 -17 0 -170 -122 -301 -239 -117 -105 -168 -164 -153 -178 7 -7
124 78 234 171 112 94 329 302 322 309 -3 3 -10 0 -17 -7z"/>
<path d="M4020 7678 c-113 -51 -165 -122 -235 -322 -24 -68 -50 -137 -59 -152
l-15 -29 6 40 c3 22 2 37 -2 33 -5 -4 -14 -3 -22 4 -19 16 -29 2 -12 -18 12
-15 12 -17 0 -13 -19 7 -62 -37 -55 -56 4 -8 1 -15 -5 -15 -11 0 -51 -118 -51
-152 0 -20 42 -68 60 -68 6 0 9 4 5 9 -7 12 9 22 42 26 14 1 39 16 56 33 27
27 32 41 38 105 7 77 55 225 113 352 59 127 169 195 317 195 32 0 59 3 59 8 0
4 -16 15 -36 25 -48 24 -145 21 -204 -5z"/>
<path d="M4205 7592 c-32 -4 -99 -25 -111 -34 -6 -4 -14 -5 -17 -1 -4 3 -7 1
-7 -5 0 -7 -7 -12 -15 -12 -8 0 -15 -7 -15 -15 0 -8 -4 -15 -8 -15 -12 0 -55
-134 -50 -157 6 -30 21 -19 68 50 50 73 106 122 150 132 16 3 34 13 41 21 10
12 13 12 24 -3 12 -16 39 -18 282 -21 319 -4 367 3 203 29 -164 26 -464 43
-545 31z"/>
<path d="M3313 7122 c-47 -22 -52 -48 -15 -82 17 -15 29 -31 26 -34 -2 -3 -1
-4 2 -2 7 6 52 -45 50 -56 0 -4 14 -18 31 -31 18 -13 29 -28 25 -32 -4 -5 -2
-5 5 -1 16 9 29 -14 13 -24 -6 -4 -50 -7 -96 -6 -46 0 -84 -2 -84 -6 0 -5 -18
-8 -40 -8 -23 0 -55 -8 -73 -17 -18 -9 -44 -16 -59 -14 -25 2 -25 1 15 -42 23
-24 51 -50 62 -56 18 -11 18 -11 -5 -6 -14 4 -32 16 -40 28 -8 11 -23 30 -33
41 -17 21 -17 21 -12 -8 2 -16 5 -29 7 -30 2 0 15 -12 30 -24 24 -22 61 -35
133 -48 17 -3 34 -10 40 -15 12 -12 48 -12 40 1 -6 9 7 14 31 11 6 -1 33 22
59 51 26 29 64 71 84 93 20 22 54 55 76 73 l40 33 -52 45 c-29 25 -53 50 -53
54 0 5 -28 36 -61 70 -67 65 -86 71 -146 42z m127 -62 c59 -57 71 -74 66 -93
-3 -12 -6 -37 -6 -54 0 -20 -5 -33 -13 -33 -7 0 -57 44 -111 99 -73 74 -95
101 -85 107 12 8 72 42 75 43 1 1 34 -31 74 -69z"/>
<path d="M10391 6534 c-1 -519 3 -614 25 -614 16 0 19 17 4 22 -7 2 -11 167
-11 473 -1 259 -5 502 -9 540 -4 39 -8 -151 -9 -421z"/>
<path d="M2880 6811 c0 -5 -16 -32 -35 -61 -19 -29 -35 -45 -35 -37 0 8 7 20
15 27 8 7 15 19 15 26 0 22 3 22 -369 -41 -46 -8 -90 -20 -96 -27 -9 -9 -14
-83 -19 -240 -5 -224 -5 -228 15 -228 27 0 354 57 461 80 89 19 127 34 140 54
4 6 8 82 8 168 0 155 -9 211 -34 202 -13 -5 -46 45 -46 70 0 9 -4 16 -10 16
-5 0 -10 -4 -10 -9z m-89 -163 c-15 -37 -22 -43 -52 -46 -19 -2 -48 -9 -66
-17 -17 -8 -41 -15 -53 -15 -31 0 -80 -31 -80 -51 0 -9 11 -36 24 -59 l24 -42
46 42 c26 24 49 41 51 38 3 -2 -9 -25 -25 -51 -24 -39 -35 -47 -60 -47 -24 0
-35 8 -56 40 -15 22 -30 40 -34 40 -4 0 -22 -22 -40 -50 -20 -31 -39 -50 -51
-50 -26 0 -24 22 6 50 13 13 43 54 66 93 49 82 89 105 199 114 45 4 70 10 70
18 0 9 24 27 47 34 1 1 -6 -18 -16 -41z"/>
<path d="M8850 5930 c-79 -68 -133 -93 -111 -51 7 13 6 23 -2 36 -12 15 -27 3
-148 -120 -74 -76 -161 -163 -194 -194 -115 -108 -175 -170 -175 -184 0 -13
72 -37 114 -37 13 0 50 19 82 43 64 48 374 361 375 380 1 24 148 138 184 144
19 3 35 9 35 14 0 7 -62 39 -76 39 -1 0 -39 -31 -84 -70z"/>
<path d="M10396 5399 c-10 -52 -7 -757 4 -764 6 -3 9 143 10 395 0 220 -1 400
-4 400 -2 0 -6 -14 -10 -31z"/>
<path d="M3733 5362 c-10 -9 -13 -13 -6 -8 8 5 16 6 19 3 4 -3 -32 -48 -80
-99 -47 -50 -98 -110 -113 -133 -44 -64 -84 -109 -112 -123 -14 -7 -18 -10 -8
-7 9 2 17 -1 17 -8 0 -8 4 -6 10 3 5 8 10 11 10 6 0 -5 6 -3 14 3 10 8 20 8
41 -3 l27 -14 -28 -16 c-16 -8 -23 -15 -16 -16 8 0 10 -8 6 -25 -4 -15 -2 -25
5 -25 6 0 11 7 11 16 0 8 26 43 57 77 45 49 48 53 14 22 l-44 -40 35 45 c20
25 54 74 77 109 44 69 52 73 23 12 -16 -32 -17 -41 -5 -56 15 -22 17 -39 4
-30 -5 3 -11 -5 -13 -17 -2 -12 -14 -28 -28 -35 l-25 -13 24 0 c47 0 87 23
131 79 43 54 45 58 44 120 -1 35 -6 73 -12 85 -27 60 -32 79 -23 90 16 19 -35
18 -56 -2z"/>
<path d="M7420 4109 c-52 -39 -120 -88 -150 -107 -51 -33 -95 -67 -186 -147
-41 -35 -38 -57 8 -81 35 -18 69 -12 106 17 14 11 101 92 194 181 128 122 168
166 166 182 -6 40 -40 29 -138 -45z m10 -74 c0 -6 -184 -184 -225 -217 -54
-45 -71 -50 -104 -33 -16 8 -32 19 -35 23 -7 12 147 143 214 182 33 20 59 28
72 25 16 -6 17 -9 6 -22 -11 -14 -11 -15 7 -5 11 6 27 20 35 31 13 19 30 28
30 16z"/>
<path d="M7882 4155 c-56 -13 -107 -27 -113 -31 -6 -3 8 -15 33 -26 23 -10 62
-38 86 -61 l42 -41 48 45 c72 69 79 74 97 59 22 -19 18 -37 -10 -44 -14 -4
-25 -11 -25 -16 0 -6 9 -6 25 0 16 6 41 6 64 1 25 -5 48 -4 67 4 27 11 25 12
-23 7 -50 -4 -53 -3 -63 24 -15 39 -81 104 -105 103 -11 0 -66 -11 -123 -24z"/>
<path d="M9440 3509 c-13 -6 -39 -21 -57 -35 -27 -20 -33 -22 -33 -9 0 13 -8
16 -37 13 l-38 -3 0 -145 c0 -161 -2 -157 68 -131 26 10 27 13 27 86 0 87 17
131 55 141 49 12 55 2 55 -96 0 -102 5 -110 65 -90 l35 12 0 89 c0 97 -12 136
-52 163 -25 18 -51 19 -88 5z"/>
<path d="M8538 3429 c-14 -8 -18 -24 -18 -72 0 -35 5 -68 11 -74 7 -7 -2 -20
-33 -44 l-42 -34 34 -5 35 -5 0 -108 c0 -118 0 -117 62 -95 l33 12 0 111 c0
110 1 112 25 123 15 7 25 20 25 32 0 16 -5 19 -30 14 l-30 -6 0 81 0 81 -27 0
c-16 0 -36 -5 -45 -11z"/>
<path d="M8991 3399 c-72 -36 -101 -80 -101 -155 0 -117 116 -158 234 -83 79
50 113 138 82 212 -27 66 -113 77 -215 26z m109 -59 c13 -13 20 -33 20 -59 0
-32 -6 -44 -31 -65 -41 -35 -74 -34 -94 4 -23 44 -18 69 19 106 39 39 58 42
86 14z"/>
<path d="M8764 3340 c-19 -8 -21 -19 -28 -146 -4 -89 -3 -141 4 -148 7 -7 21
-5 43 6 42 20 48 51 40 198 -6 107 -9 111 -59 90z"/>
<path d="M4157 3213 c-2 -5 -14 -41 -27 -81 -13 -41 -33 -88 -44 -105 -27 -41
-69 -47 -101 -17 -13 12 -29 20 -37 18 -7 -3 3 -15 27 -31 37 -24 44 -25 83
-15 23 6 42 16 42 23 0 6 12 17 26 24 22 10 26 9 21 -3 -8 -21 34 -47 56 -34
25 13 21 35 -8 42 -27 7 -34 25 -10 27 24 2 29 4 48 15 22 13 41 84 26 99 -7
7 -10 5 -9 -5 5 -31 0 -57 -14 -76 -25 -33 -28 -9 -6 47 24 64 24 70 6 63 -8
-3 -17 -1 -21 5 -7 12 -52 15 -58 4z"/>
<path d="M8319 3187 c-74 -31 -110 -57 -141 -104 -35 -51 -51 -107 -44 -148 7
-37 56 -85 85 -85 66 0 201 74 201 110 0 26 -21 25 -71 -1 -83 -42 -147 -2
-116 74 19 44 58 74 121 92 68 20 78 28 74 56 -4 33 -39 35 -109 6z"/>
<path d="M7839 3160 c-27 -14 -39 -29 -47 -57 -5 -21 -37 -132 -71 -248 -67
-229 -71 -251 -43 -240 9 4 29 11 44 17 21 7 30 21 42 61 15 49 19 54 94 100
84 51 107 57 116 30 4 -10 15 -29 25 -42 l18 -23 44 22 c24 12 45 24 47 25 5
4 -23 58 -73 140 -24 39 -61 108 -84 153 -45 90 -52 94 -112 62z"/>
<path d="M7242 2723 c-18 -9 -42 -26 -55 -39 -15 -16 -29 -21 -47 -18 -14 3
-33 -1 -43 -8 -16 -12 -18 -31 -19 -151 -1 -75 2 -140 5 -144 4 -3 22 1 41 9
l33 16 6 90 c8 121 36 172 95 172 25 0 32 -25 32 -122 0 -84 3 -87 50 -63 37
19 44 45 38 152 -4 74 -8 89 -27 105 -28 22 -65 23 -109 1z"/>
<path d="M6933 2600 c-22 -9 -23 -13 -23 -155 0 -80 1 -145 3 -145 1 0 20 7
42 14 30 11 40 19 39 35 0 12 -1 75 -2 141 -2 130 -3 132 -59 110z"/>
<path d="M6573 2451 c-11 -11 -37 -20 -69 -23 -102 -9 -184 -98 -184 -199 0
-36 6 -55 24 -76 21 -24 31 -28 78 -28 41 1 62 7 93 28 47 32 55 22 29 -35
-14 -31 -35 -52 -86 -84 -37 -24 -72 -53 -79 -65 -11 -22 -10 -22 36 -16 78
11 155 56 190 112 30 48 30 48 33 227 l4 178 -26 0 c-14 0 -33 -8 -43 -19z
m-35 -147 c-3 -55 -8 -69 -29 -85 -33 -26 -71 -21 -87 14 -12 24 -11 33 5 65
11 22 32 44 53 54 59 30 63 26 58 -48z"/>
<path d="M4108 2311 c-1 -27 -2 -136 0 -243 l3 -194 92 -12 c51 -7 104 -15
118 -18 21 -5 27 -1 32 15 8 32 -16 49 -80 57 -32 4 -61 12 -65 18 -4 6 -8
100 -8 209 0 149 -3 199 -12 201 -7 3 -27 7 -45 10 -31 5 -31 5 -35 -43z"/>
<path d="M6125 2318 c-11 -6 -33 -22 -49 -36 -30 -24 -30 -24 -37 -3 -8 19
-11 19 -46 7 l-38 -13 -3 -142 -3 -143 43 7 c24 4 45 9 47 11 1 1 5 42 7 91 5
95 18 125 68 153 42 23 56 -4 56 -106 0 -46 5 -86 10 -89 6 -4 26 -1 45 5 l35
12 0 102 c0 89 -3 107 -21 130 -16 20 -29 26 -57 26 -20 0 -46 -6 -57 -12z"/>
<path d="M5797 2233 l-28 -4 3 -137 3 -137 40 3 c22 2 41 4 42 5 1 1 3 63 4
137 3 149 5 144 -64 133z"/>
<path d="M5565 2180 c-16 -5 -42 -24 -57 -42 l-28 -32 0 26 c0 35 -8 38 -50
24 -32 -10 -35 -15 -41 -61 -3 -27 -4 -87 -1 -133 l5 -83 36 3 36 3 10 94 c12
106 32 135 89 129 l31 -3 5 -90 5 -90 39 2 c22 2 43 8 48 15 4 7 8 48 8 91 0
132 -39 175 -135 147z"/>
<path d="M5261 2138 c-19 -5 -41 -17 -48 -26 -11 -16 -12 -16 -13 1 0 16 -5
17 -32 12 -18 -4 -36 -9 -40 -12 -5 -2 -8 -62 -8 -134 0 -140 -2 -135 58 -123
29 6 30 7 34 85 4 71 8 83 33 109 16 17 46 35 67 40 42 12 53 23 35 38 -21 17
-51 20 -86 10z"/>
<path d="M4465 2102 c-62 -30 -80 -56 -80 -116 1 -101 66 -156 183 -156 70 0
112 13 112 35 0 12 -13 15 -59 15 -62 0 -111 13 -111 29 0 5 34 26 75 46 58
28 76 41 81 62 19 75 -108 129 -201 85z"/>
<path d="M4837 2096 c-20 -8 -45 -20 -54 -27 -22 -19 -53 -88 -53 -121 0 -31
40 -82 81 -103 36 -19 109 -19 136 0 19 13 24 13 51 -2 39 -22 63 -12 57 24
-2 15 -7 76 -11 136 l-6 107 -81 0 c-45 -1 -99 -7 -120 -14z"/>
<path d="M5955 1373 c-16 -3 -35 -9 -41 -14 -8 -6 -37 -6 -80 1 -42 7 -69 7
-73 1 -3 -5 -16 -11 -29 -12 -39 -7 -29 -21 17 -24 24 -2 47 -9 52 -16 6 -10
11 -10 22 -1 7 7 16 9 19 6 10 -9 118 -13 118 -4 0 6 7 10 15 10 8 0 15 -3 15
-7 0 -5 21 -8 48 -9 26 -1 67 -3 91 -5 26 -3 50 0 60 8 19 15 51 17 51 3 0 -5
16 -10 35 -10 26 0 33 3 29 15 -4 8 -1 15 5 15 6 0 11 -6 11 -14 0 -8 9 -12
25 -11 14 2 25 -1 25 -7 0 -7 20 -9 58 -4 31 3 103 7 159 7 56 1 102 4 101 8
0 3 0 15 1 25 1 19 1 19 15 1 7 -10 19 -20 27 -22 8 -1 26 -5 40 -9 19 -4 28
-1 33 11 9 23 1 32 -35 40 -22 5 -34 3 -40 -6 -6 -10 -9 -11 -9 -1 0 15 -186
17 -195 2 -4 -6 -10 -8 -15 -5 -5 3 -11 1 -15 -5 -4 -6 -12 -6 -23 0 -19 10
-73 24 -84 22 -36 -8 -246 -8 -255 0 -13 10 -131 18 -178 11z"/>
</g>
</svg>
